<svg width="147" height="95" viewBox="0 0 147 95" fill="none" xmlns="http://www.w3.org/2000/svg">
<path d="M12.0741 86V63.1562H15.8084V82.7969H25.4803V86H12.0741ZM32.3118 86H28.64V68.7188H32.3118V86ZM28.4212 64.1406C28.4212 63.4844 28.5983 62.9792 28.9525 62.625C29.317 62.2708 29.8327 62.0938 30.4993 62.0938C31.1452 62.0938 31.6452 62.2708 31.9993 62.625C32.3639 62.9792 32.5462 63.4844 32.5462 64.1406C32.5462 64.7656 32.3639 65.2604 31.9993 65.625C31.6452 65.9792 31.1452 66.1562 30.4993 66.1562C29.8327 66.1562 29.317 65.9792 28.9525 65.625C28.5983 65.2604 28.4212 64.7656 28.4212 64.1406ZM48.7996 81.0781C48.7996 82.7656 48.185 84.0625 46.9558 84.9688C45.7267 85.8646 43.9663 86.3125 41.6746 86.3125C39.3725 86.3125 37.5236 85.9635 36.1277 85.2656V82.0938C38.159 83.0312 40.0496 83.5 41.7996 83.5C44.06 83.5 45.1902 82.8177 45.1902 81.4531C45.1902 81.0156 45.0652 80.651 44.8152 80.3594C44.5652 80.0677 44.1538 79.7656 43.5808 79.4531C43.0079 79.1406 42.2111 78.7865 41.1902 78.3906C39.2006 77.6198 37.8517 76.849 37.1433 76.0781C36.4454 75.3073 36.0965 74.3073 36.0965 73.0781C36.0965 71.599 36.6902 70.4531 37.8777 69.6406C39.0756 68.8177 40.7006 68.4062 42.7527 68.4062C44.784 68.4062 46.7058 68.8177 48.5183 69.6406L47.3308 72.4062C45.4663 71.6354 43.8986 71.25 42.6277 71.25C40.6902 71.25 39.7215 71.8021 39.7215 72.9062C39.7215 73.4479 39.9715 73.9062 40.4715 74.2812C40.9819 74.6562 42.0861 75.1719 43.784 75.8281C45.2111 76.3802 46.2475 76.8854 46.8933 77.3438C47.5392 77.8021 48.0183 78.3333 48.3308 78.9375C48.6433 79.5312 48.7996 80.2448 48.7996 81.0781ZM58.8342 83.3438C59.7301 83.3438 60.6259 83.2031 61.5217 82.9219V85.6875C61.1155 85.8646 60.5894 86.0104 59.9436 86.125C59.3082 86.25 58.6467 86.3125 57.9592 86.3125C54.4801 86.3125 52.7405 84.4792 52.7405 80.8125V71.5H50.3811V69.875L52.9124 68.5312L54.1624 64.875H56.428V68.7188H61.3499V71.5H56.428V80.75C56.428 81.6354 56.6467 82.2917 57.0842 82.7188C57.5322 83.1354 58.1155 83.3438 58.8342 83.3438ZM72.1501 86.3125C69.4626 86.3125 67.3585 85.5312 65.8376 83.9688C64.3272 82.3958 63.572 80.2344 63.572 77.4844C63.572 74.6615 64.2751 72.4427 65.6814 70.8281C67.0876 69.2135 69.0199 68.4062 71.4783 68.4062C73.7595 68.4062 75.5616 69.099 76.8845 70.4844C78.2074 71.8698 78.8689 73.776 78.8689 76.2031V78.1875H67.3533C67.4053 79.8646 67.8585 81.1562 68.7126 82.0625C69.5668 82.9583 70.7699 83.4062 72.322 83.4062C73.3428 83.4062 74.2908 83.3125 75.1658 83.125C76.0512 82.9271 76.9991 82.6042 78.0095 82.1562V85.1406C77.1137 85.5677 76.2074 85.8698 75.2908 86.0469C74.3741 86.224 73.3272 86.3125 72.1501 86.3125ZM71.4783 71.1875C70.3116 71.1875 69.3741 71.5573 68.6658 72.2969C67.9678 73.0365 67.5512 74.1146 67.4158 75.5312H75.2595C75.2387 74.1042 74.8949 73.026 74.2283 72.2969C73.5616 71.5573 72.6449 71.1875 71.4783 71.1875ZM97.8566 86H94.1691V75.375C94.1691 74.0417 93.8983 73.0469 93.3566 72.3906C92.8254 71.7344 91.9764 71.4062 90.8098 71.4062C89.2577 71.4062 88.1223 71.8646 87.4035 72.7812C86.6848 73.6979 86.3254 75.2344 86.3254 77.3906V86H82.6535V68.7188H85.5285L86.0441 70.9844H86.2316C86.7525 70.1615 87.4921 69.526 88.4504 69.0781C89.4087 68.6302 90.4712 68.4062 91.6379 68.4062C95.7837 68.4062 97.8566 70.5156 97.8566 74.7344V86ZM111.407 68.4062C113.563 68.4062 115.24 69.1875 116.438 70.75C117.646 72.3125 118.251 74.5052 118.251 77.3281C118.251 80.1615 117.641 82.3698 116.423 83.9531C115.204 85.526 113.511 86.3125 111.344 86.3125C109.157 86.3125 107.459 85.526 106.251 83.9531H106.001L105.329 86H102.579V61.6875H106.251V67.4688C106.251 67.8958 106.23 68.5312 106.188 69.375C106.146 70.2188 106.115 70.7552 106.094 70.9844H106.251C107.417 69.2656 109.136 68.4062 111.407 68.4062ZM110.454 71.4062C108.975 71.4062 107.907 71.8438 107.251 72.7188C106.605 73.5833 106.271 75.0365 106.251 77.0781V77.3281C106.251 79.4323 106.584 80.9583 107.251 81.9062C107.917 82.8438 109.006 83.3125 110.516 83.3125C111.818 83.3125 112.803 82.7969 113.469 81.7656C114.146 80.7344 114.485 79.2448 114.485 77.2969C114.485 73.3698 113.141 71.4062 110.454 71.4062ZM129.676 86.3125C126.988 86.3125 124.884 85.5312 123.363 83.9688C121.853 82.3958 121.098 80.2344 121.098 77.4844C121.098 74.6615 121.801 72.4427 123.207 70.8281C124.613 69.2135 126.546 68.4062 129.004 68.4062C131.285 68.4062 133.087 69.099 134.41 70.4844C135.733 71.8698 136.395 73.776 136.395 76.2031V78.1875H124.879C124.931 79.8646 125.384 81.1562 126.238 82.0625C127.093 82.9583 128.296 83.4062 129.848 83.4062C130.869 83.4062 131.817 83.3125 132.692 83.125C133.577 82.9271 134.525 82.6042 135.535 82.1562V85.1406C134.639 85.5677 133.733 85.8698 132.817 86.0469C131.9 86.224 130.853 86.3125 129.676 86.3125ZM129.004 71.1875C127.837 71.1875 126.9 71.5573 126.192 72.2969C125.494 73.0365 125.077 74.1146 124.942 75.5312H132.785C132.764 74.1042 132.421 73.026 131.754 72.2969C131.087 71.5573 130.171 71.1875 129.004 71.1875Z" fill="white"/>
<path d="M75.9749 8.87364L77.8616 6.98693C81.5666 3.28193 87.5984 3.19023 91.3248 6.87388C92.7367 8.27279 93.6751 10.0789 94.0079 12.0384C94.3408 13.9979 94.0513 16.0125 93.1804 17.7992C92.7627 18.6526 92.6219 19.6152 92.7777 20.5526C92.9337 21.4899 93.3784 22.3551 94.0499 23.0274C95.2847 21.7898 96.2634 20.321 96.9303 18.7049C97.5972 17.0889 97.9393 15.3573 97.9368 13.609C97.9342 11.8608 97.5875 10.1301 96.916 8.516C96.2445 6.90183 95.2614 5.43579 94.0232 4.20163C88.8126 -0.979584 80.3548 -0.876478 75.1588 4.31929L57.1753 22.3023L55.6969 20.8239C51.9291 17.0561 51.9051 10.8972 55.7394 7.1963C57.1587 5.83062 58.9669 4.93912 60.9144 4.64484C62.862 4.35057 64.8528 4.66803 66.6123 5.5534C67.4153 5.96493 68.3279 6.11214 69.2196 5.97403C70.1113 5.83591 70.9366 5.41954 71.5776 4.78436L71.6234 4.73875C71.6377 4.72458 71.649 4.70772 71.6567 4.68914C71.6644 4.67058 71.6684 4.65066 71.6684 4.63055C71.6684 4.61044 71.6644 4.59052 71.6567 4.57196C71.649 4.5534 71.6377 4.53654 71.6234 4.52235C69.1482 2.10936 65.8314 0.753982 62.3746 0.743024C58.9179 0.732068 55.5925 2.06639 53.1021 4.46364C47.7374 9.64244 47.7566 18.2543 53.0293 23.527L71.0074 41.5051L69.0977 43.4149C65.3927 47.1199 59.3607 47.2116 55.6346 43.5279C54.2226 42.1291 53.2843 40.3229 52.9514 38.3634C52.6186 36.404 52.9079 34.3894 53.7787 32.6026C54.1965 31.7492 54.3373 30.7865 54.1814 29.8494C54.0256 28.912 53.5809 28.0466 52.9094 27.3744C51.6747 28.6121 50.6959 30.0808 50.0289 31.6968C49.362 33.313 49.02 35.0444 49.0225 36.7928C49.025 38.541 49.3719 40.2717 50.0434 41.8858C50.7149 43.5 51.6979 44.9661 52.9361 46.2002C58.1465 51.3816 66.6045 51.2788 71.8005 46.0828L89.8073 28.0757L91.2913 29.5597C94.9963 33.2647 95.088 39.2965 91.4043 43.0226C90.0055 44.4348 88.1993 45.3729 86.2399 45.706C84.2804 46.0388 82.2658 45.7494 80.4791 44.8785C79.6253 44.4605 78.6622 44.3195 77.7246 44.4758C76.7869 44.6318 75.9213 45.0769 75.2491 45.7489C76.4868 46.9838 77.9555 47.9627 79.5715 48.6296C81.1877 49.2965 82.9191 49.6385 84.6676 49.6361C86.4157 49.6335 88.1465 49.2865 89.7605 48.615C91.3747 47.9435 92.8408 46.9605 94.0749 45.7222C99.2563 40.5119 99.1532 32.0539 93.9575 26.8581L75.9749 8.87364ZM73.6921 38.8193L59.8607 24.9879L73.2893 11.5595L87.1207 25.3909L73.6921 38.8193Z" fill="url(#paint0_linear)"/>
<defs>
<linearGradient id="paint0_linear" x1="73.4797" y1="0.368652" x2="73.4797" y2="50.0335" gradientUnits="userSpaceOnUse">
<stop stop-color="#FAE208"/>
<stop offset="1" stop-color="#EB5F5E"/>
</linearGradient>
</defs>
</svg>
