<svg width="27" height="28" viewBox="0 0 27 28" fill="none" xmlns="http://www.w3.org/2000/svg">
<rect width="26.8154" height="27.4" rx="4" fill="url(#paint0_linear)"/>
<path d="M13 5.66666C8.405 5.66666 4.66667 9.405 4.66667 14C4.66667 18.595 8.405 22.3333 13 22.3333C17.595 22.3333 21.3333 18.595 21.3333 14C21.3333 9.405 17.595 5.66666 13 5.66666ZM16.4883 14.6167L13 18.105L9.51167 14.6167C9.29612 14.4039 9.12497 14.1504 9.00816 13.871C8.89135 13.5915 8.8312 13.2916 8.8312 12.9887C8.8312 12.6859 8.89135 12.386 9.00816 12.1065C9.12497 11.8271 9.29612 11.5736 9.51167 11.3608C9.72444 11.1454 9.97786 10.9744 10.2572 10.8576C10.5366 10.7409 10.8364 10.6808 11.1392 10.6808C11.442 10.6808 11.7417 10.7409 12.0211 10.8576C12.3005 10.9744 12.5539 11.1454 12.7667 11.3608L13 11.5933L13.2325 11.3608C13.4453 11.1454 13.6987 10.9744 13.9781 10.8576C14.2574 10.7409 14.5572 10.6808 14.86 10.6808C15.1628 10.6808 15.4626 10.7409 15.7419 10.8576C16.0213 10.9744 16.2747 11.1454 16.4875 11.3608C16.7031 11.5736 16.8743 11.827 16.9912 12.1064C17.1081 12.3858 17.1683 12.6857 17.1684 12.9886C17.1685 13.2915 17.1084 13.5913 16.9916 13.8708C16.8749 14.1503 16.7038 14.4038 16.4883 14.6167Z" fill="white"/>
<defs>
<linearGradient id="paint0_linear" x1="-13.4077" y1="13.7" x2="13.9859" y2="40.5092" gradientUnits="userSpaceOnUse">
<stop stop-color="#BC5090"/>
<stop offset="1" stop-color="#EB5F5E"/>
</linearGradient>
</defs>
</svg>
