<svg width="27" height="28" viewBox="0 0 27 28" fill="none" xmlns="http://www.w3.org/2000/svg">
<rect width="26.7273" height="27.4" rx="4" fill="url(#paint0_linear)"/>
<path d="M22 14C22 15.2188 21.7627 16.3848 21.2881 17.498C20.8135 18.6113 20.1748 19.5693 19.3721 20.3721C18.5693 21.1748 17.6113 21.8135 16.498 22.2881C15.3848 22.7627 14.2188 23 13 23C11.7812 23 10.6152 22.7627 9.50195 22.2881C8.38867 21.8135 7.43066 21.1748 6.62793 20.3721C5.8252 19.5693 5.18652 18.6113 4.71191 17.498C4.2373 16.3848 4 15.2188 4 14C4 12.7812 4.2373 11.6152 4.71191 10.502C5.18652 9.38867 5.8252 8.43066 6.62793 7.62793C7.43066 6.8252 8.38867 6.18652 9.50195 5.71191C10.6152 5.2373 11.7812 5 13 5C14.8398 5 16.5156 5.50977 18.0273 6.5293L19.1875 5L21.1738 7.6543C21.6309 8.14648 21.8975 8.74121 21.9736 9.43848C22.0498 10.1357 21.9238 10.7715 21.5957 11.3457C21.8652 12.2129 22 13.0977 22 14ZM11.7168 14.1934L10.1523 12.1191C10.1406 12.1074 10.1201 12.084 10.0908 12.0488C10.0615 12.0137 10.041 11.9932 10.0293 11.9873C10.0176 11.9814 10 11.9639 9.97656 11.9346C9.95312 11.9053 9.93555 11.8877 9.92383 11.8818C9.91211 11.876 9.89453 11.8613 9.87109 11.8379C9.84766 11.8145 9.82715 11.7998 9.80957 11.7939C9.79199 11.7881 9.77148 11.7793 9.74805 11.7676C9.72461 11.7559 9.70117 11.75 9.67773 11.75C9.6543 11.75 9.63086 11.7441 9.60742 11.7324C9.4668 11.7324 9.29102 11.873 9.08008 12.1543L7.5332 14.2109C7.42773 14.3164 7.375 14.4424 7.375 14.5889C7.375 14.7354 7.42773 14.8613 7.5332 14.9668C7.63867 15.0723 7.76758 15.125 7.91992 15.125C8.07227 15.125 8.20117 15.0723 8.30664 14.9668L9.625 13.209L10.9434 14.9668C11.0488 15.0723 11.1777 15.125 11.3301 15.125C11.4824 15.125 11.6113 15.0723 11.7168 14.9668C11.8223 14.8613 11.875 14.7324 11.875 14.5801C11.875 14.4277 11.8223 14.2988 11.7168 14.1934ZM11.3125 18.5C11.1602 18.5 11.0283 18.5557 10.917 18.667C10.8057 18.7783 10.75 18.9102 10.75 19.0625C10.75 19.2148 10.8057 19.3467 10.917 19.458C11.0283 19.5693 11.1602 19.625 11.3125 19.625H14.6875C14.8398 19.625 14.9717 19.5693 15.083 19.458C15.1943 19.3467 15.25 19.2148 15.25 19.0625C15.25 18.9102 15.1943 18.7783 15.083 18.667C14.9717 18.5557 14.8398 18.5 14.6875 18.5H11.3125ZM15.8301 12.1543L14.2832 14.2109C14.1777 14.3164 14.125 14.4424 14.125 14.5889C14.125 14.7354 14.1777 14.8613 14.2832 14.9668C14.3887 15.0723 14.5176 15.125 14.6699 15.125C14.8223 15.125 14.9512 15.0723 15.0566 14.9668L16.375 13.209L17.6934 14.9668C17.7988 15.0723 17.9277 15.125 18.0801 15.125C18.2324 15.125 18.3613 15.0723 18.4668 14.9668C18.5723 14.8613 18.625 14.7324 18.625 14.5801C18.625 14.4277 18.5723 14.2988 18.4668 14.1934L16.9023 12.1191C16.7266 11.873 16.5449 11.7441 16.3574 11.7324C16.2168 11.7324 16.041 11.873 15.8301 12.1543ZM20.3828 8.76172L19.1875 7.25L17.9922 8.76172C17.6641 9.10156 17.5 9.51465 17.5 10.001C17.5 10.4873 17.6641 10.9004 17.9922 11.2402C18.3203 11.5801 18.7188 11.75 19.1875 11.75C19.6562 11.75 20.0547 11.5801 20.3828 11.2402C20.7109 10.9004 20.875 10.4873 20.875 10.001C20.875 9.51465 20.7109 9.10156 20.3828 8.76172Z" fill="white"/>
<defs>
<linearGradient id="paint0_linear" x1="-13.3636" y1="13.7" x2="14.0279" y2="40.419" gradientUnits="userSpaceOnUse">
<stop stop-color="#EB5F5E"/>
<stop offset="1" stop-color="#F3A533"/>
</linearGradient>
</defs>
</svg>
