<svg width="27" height="28" viewBox="0 0 27 28" fill="none" xmlns="http://www.w3.org/2000/svg">
<rect width="26.4923" height="27.4" rx="4" fill="url(#paint0_linear)"/>
<path d="M13 6C10.8783 6 8.84344 6.84285 7.34315 8.34315C5.84285 9.84344 5 11.8783 5 14C5 16.1217 5.84285 18.1566 7.34315 19.6569C8.84344 21.1571 10.8783 22 13 22C15.1217 22 17.1566 21.1571 18.6569 19.6569C20.1571 18.1566 21 16.1217 21 14C21 11.8783 20.1571 9.84344 18.6569 8.34315C17.1566 6.84285 15.1217 6 13 6V6ZM9.756 10.566C10.519 9.142 13.776 10.446 10.708 14C6.212 12.404 8.358 9.702 9.756 10.566ZM16.315 16.014C16.4099 15.9917 16.5093 15.9975 16.6009 16.031C16.6925 16.0644 16.7724 16.1239 16.8306 16.2021C16.8889 16.2803 16.923 16.3739 16.9287 16.4712C16.9345 16.5686 16.9116 16.6655 16.863 16.75C16.4681 17.4344 15.8999 18.0026 15.2157 18.3976C14.5314 18.7926 13.7551 19.0004 12.965 19C12.1749 19.0004 11.3986 18.7926 10.7143 18.3976C10.0301 18.0026 9.46188 17.4344 9.067 16.75C9.01837 16.6655 8.99553 16.5686 9.00128 16.4712C9.00703 16.3739 9.04113 16.2803 9.09937 16.2021C9.15761 16.1239 9.23745 16.0644 9.32907 16.031C9.42068 15.9975 9.52007 15.9917 9.615 16.014H9.62L9.637 16.019L9.704 16.034L9.956 16.089C10.171 16.135 10.471 16.197 10.813 16.258C11.506 16.382 12.335 16.5 12.965 16.5C13.595 16.5 14.425 16.382 15.117 16.258C15.4882 16.1912 15.858 16.1165 16.226 16.034L16.293 16.019L16.31 16.015L16.315 16.013V16.014ZM16.245 10.566C17.642 9.702 19.788 12.404 15.292 14C12.225 10.446 15.482 9.142 16.244 10.566H16.245Z" fill="white"/>
<defs>
<linearGradient id="paint0_linear" x1="-13.2462" y1="13.7" x2="14.1383" y2="40.1773" gradientUnits="userSpaceOnUse">
<stop stop-color="#2A6F9D"/>
<stop offset="1" stop-color="#133F5C"/>
</linearGradient>
</defs>
</svg>
