<svg width="28" height="28" viewBox="0 0 28 28" fill="none" xmlns="http://www.w3.org/2000/svg">
<rect x="0.545456" width="26.7273" height="27.4" rx="4" fill="url(#paint0_linear)"/>
<path d="M20.261 12.0025C20.8204 12.0025 21.1821 12.4028 21.1821 13.022C21.1821 13.2809 21.1821 13.8173 20.8115 14.0227C20.8937 14.1919 20.8906 14.4111 20.8873 14.6402L20.8861 14.7872C20.8861 15.2684 20.6722 15.6402 20.336 15.7945C20.4202 15.9667 20.4179 16.1905 20.4153 16.4242L20.4148 16.6061C20.4176 16.8914 20.311 17.1577 20.1145 17.3563C20.0397 17.4318 19.955 17.4941 19.8632 17.5419C20.0331 17.7825 20.04 18.1337 20.0435 18.3067C20.0491 18.5872 19.9425 18.8534 19.7434 19.0564C19.5428 19.2608 19.264 19.3783 18.9787 19.3783L16.477 19.3776C16.4714 19.3781 16.4658 19.3783 16.4602 19.3783H13.1788C13.1504 19.3783 13.1209 19.3804 13.0908 19.3826C13.0532 19.3852 13.0133 19.3877 12.9721 19.3877C12.9171 19.3877 12.8599 19.3829 12.8017 19.3666C12.7 19.3376 12.6104 19.2797 12.5314 19.2285L12.4754 19.1932C12.3556 19.1194 12.2394 19.0411 12.1232 18.9625L12.0286 18.8987C11.9675 18.8577 11.8956 18.8361 11.8195 18.8361H11.493V18.4714V13.7533V13.3229L11.8521 13.0973C12.0243 12.9892 12.1323 12.8028 12.2468 12.6052L12.764 11.7332C13.117 11.1398 13.4708 10.5465 13.8258 9.95423C13.8357 9.9377 13.8484 9.91659 13.8505 9.9082C13.8525 9.90057 13.8525 9.87591 13.8523 9.86116L13.8505 7.94135C13.8502 7.69314 14.0593 7.49553 14.264 7.33481C14.5681 7.09677 14.9516 7.03574 15.3163 7.16747C15.6075 7.27276 15.9709 7.45917 16.0493 7.74883C16.1454 8.10436 16.2415 8.45989 16.331 8.81746L16.3689 8.96521C16.4267 9.18875 16.4864 9.41967 16.5108 9.65644C16.5464 9.99874 16.1985 11.3873 15.9923 12.0091L20.261 12.0025Z" fill="white"/>
<path d="M8.6953 12.7947C8.21159 12.7947 7.81792 13.1883 7.81792 13.672V19.0233C7.81792 19.507 8.21159 19.9007 8.6953 19.9007H10.6154C10.8074 19.9007 10.9837 19.8369 11.1283 19.732V19.0233V13.672V12.9646C10.984 12.8588 10.8079 12.7947 10.6154 12.7947H8.6953ZM8.87764 17.5343V17.116C8.87764 17.0152 8.95928 16.9336 9.05998 16.9336C9.16069 16.9336 9.24233 17.0152 9.24233 17.116V17.5343C9.24233 17.635 9.16069 17.7166 9.05998 17.7166C8.95928 17.7166 8.87764 17.635 8.87764 17.5343ZM9.24232 16.5181C9.24232 16.6188 9.16069 16.7004 9.05998 16.7004C8.95927 16.7004 8.87764 16.6188 8.87764 16.5181V13.891C8.87764 13.7903 8.95927 13.7087 9.05998 13.7087C9.16069 13.7087 9.24232 13.7903 9.24232 13.891V16.5181Z" fill="white"/>
<defs>
<linearGradient id="paint0_linear" x1="-12.9328" y1="11.8102" x2="21.7532" y2="42.2725" gradientUnits="userSpaceOnUse">
<stop stop-color="#F3A533"/>
<stop offset="0.0001" stop-color="#BC5090"/>
<stop offset="1" stop-color="#59508D"/>
</linearGradient>
</defs>
</svg>
