<svg width="16" height="15" viewBox="0 0 16 15" fill="none" xmlns="http://www.w3.org/2000/svg">
<path d="M9.36295 0.23176C9.26169 0.315709 9.17799 0.41881 9.11664 0.535157C9.05529 0.651504 9.01749 0.778812 9.00542 0.909789C8.99334 1.04077 9.00722 1.17284 9.04627 1.29844C9.08531 1.42405 9.14875 1.54071 9.23295 1.64176L12.863 6.00176L1.00295 6.00176C0.737735 6.00176 0.483381 6.10712 0.295845 6.29465C0.108309 6.48219 0.00295228 6.73654 0.00295227 7.00176C0.00295226 7.26698 0.108308 7.52133 0.295845 7.70887C0.483381 7.8964 0.737735 8.00176 1.00295 8.00176L12.863 8.00176L9.23295 12.3618C9.14891 12.4629 9.0856 12.5796 9.04665 12.7051C9.0077 12.8307 8.99386 12.9628 9.00593 13.0937C9.018 13.2246 9.05575 13.3519 9.117 13.4682C9.17826 13.5846 9.26183 13.6877 9.36295 13.7718C9.46407 13.8558 9.58075 13.9191 9.70634 13.9581C9.83192 13.997 9.96395 14.0109 10.0949 13.9988C10.2258 13.9867 10.3531 13.949 10.4694 13.8877C10.5858 13.8265 10.6889 13.7429 10.773 13.6418L15.773 7.64176L15.863 7.49176L15.933 7.36176C16.0223 7.13008 16.0223 6.87344 15.933 6.64176L15.863 6.51176L15.773 6.36176L10.773 0.36176C10.689 0.260502 10.5859 0.176799 10.4696 0.115447C10.3532 0.0540954 10.2259 0.016299 10.0949 0.00422317C9.96395 -0.00785271 9.83187 0.00602931 9.70627 0.0450738C9.58067 0.0841183 9.464 0.147558 9.36295 0.23176Z" fill="#59508D"/>
</svg>
